<svg xmlns="http://www.w3.org/2000/svg" role="img" viewBox="-12 -12 1499 1495" width="1499" height="1495" font-family="Helvetica,Arial,sans-serif">
<title>Dependencias de código</title>
<rect width="100%" height="100%" fill="white"/>
<defs><marker id="arrow" viewBox="0 0 10 10" refX="9" refY="5" markerWidth="7" markerHeight="7" orient="auto"><path d="M0,1 L9,5 L0,9 z" fill="#333"/></marker></defs>
<rect x="0" y="0" width="320" height="180" rx="4" fill="#f5f5f5" stroke="#333"/>
<text x="160.0" y="96.0" text-anchor="middle" font-size="18" fill="#111">pgso-actuator-local</text>
<rect x="798" y="0" width="320" height="180" rx="4" fill="#f5f5f5" stroke="#333"/>
<text x="958.0" y="96.0" text-anchor="middle" font-size="18" fill="#111">Ejemplo voice_bridge</text>
<rect x="548" y="323" width="320" height="180" rx="4" fill="#f5f5f5" stroke="#333"/>
<text x="708.0" y="419.0" text-anchor="middle" font-size="18" fill="#111">pgso-signal-egemaps</text>
<rect x="978" y="323" width="320" height="180" rx="4" fill="#f5f5f5" stroke="#333"/>
<text x="1138.0" y="419.0" text-anchor="middle" font-size="18" fill="#111">pgso-actuator-http</text>
<rect x="1155" y="646" width="320" height="180" rx="4" fill="#f5f5f5" stroke="#333"/>
<text x="1315.0" y="742.0" text-anchor="middle" font-size="18" fill="#111">pgso-actuator-mcp</text>
<rect x="501" y="968" width="320" height="180" rx="4" fill="#f5f5f5" stroke="#333"/>
<text x="661.0" y="1064.0" text-anchor="middle" font-size="18" fill="#111">pgso-core</text>
<rect x="501" y="1291" width="320" height="180" rx="4" fill="#f5f5f5" stroke="#333"/>
<text x="661.0" y="1387.0" text-anchor="middle" font-size="18" fill="#111">std y thiserror</text>
<path d="M 661,1148 L 661,1190 L 661,1239 L 661,1281" fill="none" stroke="#333" stroke-width="1.3" marker-end="url(#arrow)"/>
<rect x="659" y="1207" width="86" height="22" fill="white"/>
<text x="662" y="1223" font-size="14" fill="#222">Depende de</text>
<path d="M 702,503 L 693,622 L 677,834 L 668,958" fill="none" stroke="#333" stroke-width="1.3" marker-end="url(#arrow)"/>
<rect x="689" y="723" width="86" height="22" fill="white"/>
<text x="692" y="739" font-size="14" fill="#222">Depende de</text>
<path d="M 180,180 L 214,324 L 296,615 L 434,826 L 466,875 L 510,922 L 550,961" fill="none" stroke="#333" stroke-width="1.3" marker-end="url(#arrow)"/>
<rect x="307" y="562" width="86" height="22" fill="white"/>
<text x="310" y="578" font-size="14" fill="#222">Depende de</text>
<path d="M 1187,825 L 1144,854 L 1094,884 L 1046,908 L 977,943 L 899,975 L 831,1000" fill="none" stroke="#333" stroke-width="1.3" marker-end="url(#arrow)"/>
<rect x="1082" y="885" width="86" height="22" fill="white"/>
<text x="1085" y="901" font-size="14" fill="#222">Depende de</text>
<path d="M 1072,503 L 983,623 L 825,836 L 733,960" fill="none" stroke="#333" stroke-width="1.3" marker-end="url(#arrow)"/>
<rect x="960" y="723" width="86" height="22" fill="white"/>
<text x="963" y="739" font-size="14" fill="#222">Depende de</text>
<path d="M 798,125 L 692,156 L 559,216 L 493,323 L 368,525 L 506,812 L 596,960" fill="none" stroke="#333" stroke-width="1.3" marker-end="url(#arrow)"/>
<rect x="446" y="562" width="53" height="22" fill="white"/>
<text x="449" y="578" font-size="14" fill="#222">Enlaza</text>
<path d="M 889,180 L 856,222 L 817,272 L 784,315" fill="none" stroke="#333" stroke-width="1.3" marker-end="url(#arrow)"/>
<rect x="839" y="239" width="177" height="22" fill="white"/>
<text x="842" y="255" font-size="14" fill="#222">Dependencia de</text>
<text x="842" y="273" font-size="14" fill="#222">desarrollo</text>
<path d="M 1187,503 L 1210,544 L 1237,594 L 1261,637" fill="none" stroke="#333" stroke-width="1.3" marker-end="url(#arrow)"/>
<rect x="1230" y="562" width="86" height="22" fill="white"/>
<text x="1233" y="578" font-size="14" fill="#222">Depende de</text>
<path d="M 1118,141 L 1204,177 L 1302,235 L 1353,323 L 1408,419 L 1383,548 L 1355,636" fill="none" stroke="#333" stroke-width="1.3" marker-end="url(#arrow)"/>
<rect x="1384" y="400" width="53" height="22" fill="white"/>
<text x="1387" y="416" font-size="14" fill="#222">Enlaza</text>
<path d="M 1008,180 L 1031,222 L 1059,271 L 1083,314" fill="none" stroke="#333" stroke-width="1.3" marker-end="url(#arrow)"/>
<rect x="1051" y="239" width="53" height="22" fill="white"/>
<text x="1054" y="255" font-size="14" fill="#222">Enlaza</text>
</svg>
